# xmcd
#
# Track frame offsets: 
#        150
#        20370
#        39352
#        58430
#        75005
#        87542
#        103985
#        116150
#        134080
#        152375
#        168875
#        179895
#        199600
#        216302
#        233505
#        257115
#
# Disc length: 3622 seconds
#
# Revision: 5
# Processed by: cddbd v1.5.2PL0 Copyright (c) Steve Scherf et al.
# Submitted via: ExactAudioCopyFreeDBPlugin 1.0
#
DISCID=dd0e2410
DTITLE=Saffire - the Uppity Blues Women - Old, New, Borrowed and Blue
DYEAR=1994
DGENRE=Blues
TTITLE0=Fools' Night Out
TTITLE1=T'aint Nobody's Business
TTITLE2=You Got To Know How
TTITLE3=Do Your Duty
TTITLE4=Roll Mr. Jelly
TTITLE5=The Clock
TTITLE6=The Richest Guy In The Graveyard
TTITLE7=Don't You Tell Me
TTITLE8=Bitch With A Bad Attitude
TTITLE9=Sweet Substitute
TTITLE10=Baby, I'm Wise
TTITLE11=Falling Back In Love With You
TTITLE12=There's Lightning In These Thunder Thighs
TTITLE13=How Can I Say I Miss You?
TTITLE14=Life Goes On
TTITLE15=Yonder Come The Blues
EXTD=
EXTT0=
EXTT1=
EXTT2=
EXTT3=
EXTT4=
EXTT5=
EXTT6=
EXTT7=
EXTT8=
EXTT9=
EXTT10=
EXTT11=
EXTT12=
EXTT13=
EXTT14=
EXTT15=
PLAYORDER=
